{
    "asset": {
        "version": "2.0",
        "generator": "Open Asset Import Library (assimp v5.2.cf7d3637)"
    },
    "extensionsUsed": [
        "KHR_materials_volume",
        "FB_ngon_encoding"
    ],
    "accessors": [
        {
            "bufferView": 0,
            "byteOffset": 0,
            "componentType": 5126,
            "count": 360000,
            "type": "VEC3",
            "max": [
                0.9486737251281738,
                1.8996210098266602,
                0.6909655332565308
            ],
            "min": [
                -0.9450337886810303,
                0.0,
                -0.6829348802566528
            ]
        },
        {
            "bufferView": 1,
            "byteOffset": 0,
            "componentType": 5126,
            "count": 360000,
            "type": "VEC3",
            "max": [
                0.9999960660934448,
                1.0,
                1.0
            ],
            "min": [
                -0.9999904632568359,
                -0.9999961853027344,
                -1.0
            ]
        },
        {
            "bufferView": 2,
            "byteOffset": 0,
            "componentType": 5126,
            "count": 360000,
            "type": "VEC2",
            "max": [
                1.0,
                1.0
            ],
            "min": [
                0.0,
                0.0
            ]
        },
        {
            "bufferView": 3,
            "byteOffset": 0,
            "componentType": 5125,
            "count": 360000,
            "type": "SCALAR",
            "max": [
                359999
            ],
            "min": [
                0
            ]
        }
    ],
    "buffers": [
        {
            "byteLength": 12960000,
            "uri": "result.bin"
        }
    ],
    "bufferViews": [
        {
            "buffer": 0,
            "byteOffset": 0,
            "byteLength": 4320000,
            "target": 34962
        },
        {
            "buffer": 0,
            "byteOffset": 4320000,
            "byteLength": 4320000,
            "target": 34962
        },
        {
            "buffer": 0,
            "byteOffset": 8640000,
            "byteLength": 2880000,
            "target": 34962
        },
        {
            "buffer": 0,
            "byteOffset": 11520000,
            "byteLength": 1440000,
            "target": 34963
        }
    ],
    "images": [
        {
            "name": "shaded",
            "uri": "data:image/png;base64,"
        }
    ],
    "materials": [
        {
            "name": "CustomMaterial",
            "pbrMetallicRoughness": {
                "baseColorFactor": [
                    0.0,
                    0.0,
                    0.0,
                    1.0
                ],
                "metallicFactor": 0.0
            },
            "emissiveTexture": {
                "index": 0
            },
            "emissiveFactor": [
                1.0,
                1.0,
                1.0
            ],
            "doubleSided": true
        },
        {
            "name": "material"
        }
    ],
    "meshes": [
        {
            "name": "geometry_0",
            "primitives": [
                {
                    "mode": 4,
                    "material": 0,
                    "indices": 3,
                    "attributes": {
                        "POSITION": 0,
                        "NORMAL": 1,
                        "TEXCOORD_0": 2
                    }
                }
            ]
        }
    ],
    "nodes": [
        {
            "name": "geometry_0",
            "mesh": 0
        }
    ],
    "samplers": [
        {
            "magFilter": 9729,
            "minFilter": 9987
        }
    ],
    "scenes": [
        {
            "nodes": [
                0
            ]
        }
    ],
    "textures": [
        {
            "source": 0,
            "sampler": 0
        }
    ],
    "scene": 0
}